# xmcd
# Copyright (C) 1995-1998 Ti Kan
#
# Track frame offsets:
#       150
#       12093
#       31397
#       49637
#       66082
#       83787
#
# Disc length: 1456 seconds
#
# Revision: 0
# Processed by: cddbd v1.5.2PL0 Copyright (c) Steve Scherf et al.
# Submitted via: CD-Import v1.0
#
DISCID=3f05ae06
DTITLE=Hellroom Projectors - Caca Picante
DYEAR=2008
DGENRE=
TTITLE0=Get Out The Fuck
TTITLE1=The Puncher
TTITLE2=Hasky Metalisée
TTITLE3=Bc Power
TTITLE4=Psyco Love
TTITLE5=Coil Sky
EXTD=
EXTT0=
EXTT1=
EXTT2=
EXTT3=
EXTT4=
EXTT5=
PLAYORDER=
